<svg width="137" height="50" viewBox="0 0 137 50" fill="none" xmlns="http://www.w3.org/2000/svg">
<path d="M24.5408 16.7501C20.2019 16.7501 16.5824 19.9081 15.8223 24.0746H19.6047C20.2833 21.9754 22.2379 20.4603 24.5408 20.4603C27.4093 20.4603 29.7439 22.8105 29.7439 25.7037C29.7439 28.0266 28.2463 29.9935 26.1696 30.6871V34.5022C30.2868 33.731 33.4222 30.0756 33.4222 25.7037C33.4222 20.7706 29.4408 16.7547 24.5453 16.7547L24.5408 16.7501Z" fill="#EBF4F3"/>
<path d="M41.1769 8.93733C35.1413 2.8496 26.6219 0.773196 18.8896 2.68987L18.9349 2.83591C19.238 3.99504 19.4688 5.17243 19.609 6.35438C26.1694 4.65675 33.4356 6.39545 38.5663 11.5705C43.697 16.7455 45.5113 24.467 43.5975 31.221C44.715 31.3077 45.819 31.4674 46.9139 31.6956L47.2758 31.7732C49.3299 23.8783 47.303 15.1163 41.1769 8.93277V8.93733Z" fill="#EBF4F3"/>
<path d="M36.1137 14.1535C31.7115 9.71775 25.3999 8.3487 19.8213 10.0646C19.8077 11.4473 19.6901 12.8209 19.4639 14.1763C24.0878 12.0908 29.7162 12.967 33.5031 16.7866C37.5208 20.839 38.2583 26.977 35.6929 31.7778C37.1 31.4584 38.5343 31.2667 39.9776 31.1845C41.9638 25.4208 40.6788 18.7535 36.1182 14.1535H36.1137Z" fill="#EBF4F3"/>
<path d="M46.2711 34.7852C45.1219 37.5918 43.4116 40.2249 41.154 42.5021C38.1226 45.5551 34.4759 47.6087 30.6121 48.6492C28.6213 49.1831 26.5718 49.4524 24.5267 49.4524C22.916 49.4524 21.3099 49.2835 19.7218 48.9504H19.7173C20.5588 46.8968 21.7035 44.9299 23.1513 43.1228C23.5766 42.5843 24.0336 42.0595 24.5222 41.5483C24.6218 41.4434 24.7258 41.3384 24.8299 41.2335C26.6125 39.4354 28.6123 37.9842 30.7478 36.8844C35.5708 34.3882 41.068 33.6854 46.2711 34.7806V34.7852Z" fill="#E96F49"/>
<path d="M15.917 3.64819C12.9942 4.80276 10.2524 6.56885 7.89521 8.951C4.86385 12.0086 2.83691 15.6959 1.80082 19.5886C1.27146 21.5965 1 23.6592 1 25.7265C1 26.2239 1.01357 26.7168 1.04977 27.2142C1.04977 27.2872 1.05882 27.3648 1.06334 27.4424C1.07239 27.5975 1.08596 27.7527 1.10406 27.9079C1.10859 27.99 1.11763 28.0676 1.12668 28.1497C1.12668 28.1817 1.12668 28.2136 1.13573 28.2456C1.13573 28.3049 1.14478 28.3642 1.15383 28.4235C1.15383 28.46 1.15835 28.492 1.1674 28.5285C1.2036 28.8479 1.24884 29.172 1.29861 29.4914C1.29861 29.5188 1.30314 29.5462 1.31218 29.5735C1.3529 29.8291 1.39815 30.0847 1.44792 30.3357C1.46601 30.4361 1.48864 30.5319 1.50673 30.6277C1.52483 30.7281 1.54745 30.8239 1.57008 30.9198C1.58365 30.9791 1.59722 31.0339 1.6108 31.0932C1.61984 31.1388 1.63342 31.1845 1.64247 31.2255C1.68771 31.4035 1.73296 31.5861 1.77368 31.764C1.78272 31.7914 1.78725 31.8188 1.7963 31.8462C4.10827 30.9289 6.30714 29.6283 8.29336 27.9398C8.56935 27.7071 8.84534 27.4652 9.11228 27.2142C9.34755 26.9952 9.58282 26.767 9.81356 26.5388C10.076 26.2696 10.3339 26.0049 10.5782 25.7265C12.2341 23.9011 13.5462 21.884 14.528 19.7392C16.8535 14.6828 17.3105 8.96926 15.9125 3.64819H15.917ZM13.5145 11.575C12.8359 12.2596 11.7319 12.2596 11.0533 11.575C10.3746 10.8905 10.3746 9.77244 11.0533 9.08791C11.7319 8.40338 12.8359 8.40338 13.5145 9.08791C14.1932 9.77244 14.1932 10.8905 13.5145 11.575Z" fill="#E96F49"/>
<path d="M23.7081 32.1108L23.052 49.4065C22.9706 49.4065 22.8892 49.3928 22.8077 49.3837C22.7308 49.3837 22.6539 49.3746 22.577 49.3655C22.4231 49.3518 22.2738 49.3381 22.12 49.3198C21.8531 49.2924 21.5861 49.2605 21.3192 49.224C21.0749 49.1875 20.8305 49.1555 20.5862 49.1099C20.5681 49.1099 20.55 49.1099 20.5319 49.1008C20.265 49.0506 19.9935 49.0049 19.7266 48.9456C15.3922 48.0466 11.2614 45.9018 7.89977 42.5065C4.86389 39.4398 2.8279 35.7525 1.80086 31.8507C1.74656 31.6453 1.6968 31.4354 1.64703 31.23C1.61083 31.0977 1.58369 30.9608 1.55654 30.8239C1.51582 30.6642 1.48867 30.4999 1.457 30.3401C1.41176 30.1211 1.37104 29.8975 1.33484 29.6784C1.27603 29.3407 1.23078 28.9985 1.19006 28.6562C1.16292 28.4874 1.14482 28.3231 1.13124 28.1588C1.11315 27.9991 1.09505 27.8393 1.086 27.6796C1.07243 27.529 1.05885 27.3739 1.0498 27.2233H18.8896L14.0258 36.6287L23.7081 32.1154V32.1108Z" fill="#E96F49"/>
<path d="M75.7208 27.4288V31.0659H75.3136C73.9382 29.2907 72.0877 28.7933 70.3096 28.7933C68.4365 28.7933 67.3778 29.4094 67.3778 30.386C67.3778 33.5713 76.8021 30.7054 76.8021 37.0715C76.8021 40.2797 74.2323 42.1188 69.7214 42.1188C67.3551 42.1188 65.4368 41.5712 64.084 40.6174V36.9803H64.4912C65.8666 38.7555 67.9433 39.2529 69.7214 39.2529C72.2234 39.2529 73.5536 38.5455 73.5536 37.432C73.5536 34.2467 64.1292 37.1126 64.1292 30.7465C64.1292 27.6752 66.3824 25.9229 70.3096 25.9229C72.6759 25.9229 74.368 26.4705 75.7208 27.4242V27.4288Z" fill="#EBF4F3"/>
<path d="M78.1729 34.0231C78.1729 29.3363 81.6431 25.9274 86.4254 25.9274C91.2077 25.9274 94.6779 29.3409 94.6779 34.0231C94.6779 38.7052 91.2032 42.1187 86.4254 42.1187C81.6476 42.1187 78.1729 38.7052 78.1729 34.0231ZM86.4254 39.2528C89.1762 39.2528 91.1624 37.0487 91.1624 34.0231C91.1624 30.9974 89.1762 28.7933 86.4254 28.7933C83.6745 28.7933 81.6883 31.002 81.6883 34.0231C81.6883 37.0441 83.6745 39.2528 86.4254 39.2528Z" fill="#EBF4F3"/>
<path d="M106.197 33.5211V26.288H109.668V41.7537H106.197C106.197 37.7059 103.13 33.6352 100.153 30.3814V41.7537H96.6826V26.288H100.153C101.257 27.5156 104.053 30.1304 106.197 33.5211Z" fill="#EBF4F3"/>
<path d="M115.802 26.288V41.7537H112.328V26.288H115.802Z" fill="#EBF4F3"/>
<path d="M126.042 25.9274C127.96 25.9274 129.648 26.475 131 27.4288V31.0659H130.593C129.218 29.2907 127.367 28.7933 126.037 28.7933C123.286 28.7933 121.3 30.9974 121.3 34.0231C121.3 37.0487 123.286 39.2528 126.037 39.2528C127.367 39.2528 129.218 38.7509 130.593 36.9802H131V40.6173C129.648 41.5711 127.955 42.1187 126.042 42.1187C121.259 42.1187 117.789 38.7052 117.789 34.0231C117.789 29.3409 121.264 25.9274 126.042 25.9274Z" fill="#EBF4F3"/>
<path d="M72.0334 7.31726L79.476 22.783H75.6438C75.3271 22.167 74.6078 21.3044 73.4812 21.3044C71.7212 21.3044 69.8526 23.1481 67.0565 23.1481C64.2604 23.1481 62.4326 20.2822 65.206 14.8927L69.1061 7.31726H72.0379H72.0334ZM73.454 18.2104L70.5675 12.2504L68.8527 15.6639C67.975 17.4163 66.7127 20.054 68.3324 20.054C69.64 20.054 71.5809 18.4386 73.4495 18.2104H73.454Z" fill="#EBF4F3"/>
<path d="M97.542 16.1842V7.31726H101.012V16.1887C101.012 18.6667 102.161 20.2822 104.216 20.2822C106.27 20.2822 107.419 18.6667 107.419 16.1887V7.31726H110.894V16.1887C110.894 20.4191 108.392 23.1481 104.22 23.1481C100.049 23.1481 97.5465 20.4191 97.5465 16.1887L97.542 16.1842Z" fill="#EBF4F3"/>
<path d="M78.7388 15.1438C78.7388 10.457 82.209 7.0481 86.9913 7.0481C91.7736 7.0481 95.2438 10.4616 95.2438 15.1438C95.2438 19.8259 91.7691 23.2395 86.9913 23.2395C82.2135 23.2395 78.7388 19.8259 78.7388 15.1438ZM86.9913 20.3736C89.7421 20.3736 91.7284 18.1694 91.7284 15.1438C91.7284 12.1182 89.7421 9.91399 86.9913 9.91399C84.2405 9.91399 82.2542 12.1227 82.2542 15.1438C82.2542 18.1648 84.2405 20.3736 86.9913 20.3736Z" fill="#EBF4F3"/>
<path d="M120.653 7.31726L128.095 22.783H124.263C123.946 22.167 123.227 21.3044 122.1 21.3044C120.34 21.3044 118.472 23.1481 115.676 23.1481C112.88 23.1481 111.052 20.2822 113.825 14.8927L117.725 7.31726H120.657H120.653ZM119.187 12.2504L117.472 15.6639C116.594 17.4163 115.327 20.054 116.952 20.054C118.259 20.054 120.2 18.4386 122.069 18.2104L119.182 12.2504H119.187Z" fill="#EBF4F3"/>
<path d="M96.9085 22.4316L94.3296 25.0283L90.6377 22.0164L93.2166 19.4152L96.9085 22.4316Z" fill="#EBF4F3"/>
</svg>
